<svg width="1065" height="222" viewBox="0 0 1065 222" fill="none" xmlns="http://www.w3.org/2000/svg">
<path d="M6.19888e-06 93.312V1.79201H22.656V93.312H6.19888e-06ZM74.997 93.312V1.79201H119.157C128.288 1.79201 135.413 3.88268 140.533 8.06401C145.824 12.416 148.469 18.2613 148.469 25.6C148.469 34.304 144.202 40.2773 135.669 43.52V43.904C140.704 45.44 144.672 48.2133 147.573 52.224C150.56 56.2347 152.053 60.928 152.053 66.304C152.053 75.1787 148.938 82.0053 142.709 86.784C137.162 91.136 129.653 93.312 120.181 93.312H74.997ZM97.397 75.136H117.621C121.29 75.136 124.192 74.1547 126.325 72.192C128.544 70.2293 129.653 67.6267 129.653 64.384C129.653 60.8853 128.501 58.1973 126.197 56.32C123.893 54.3573 120.949 53.376 117.365 53.376H97.397V75.136ZM97.397 38.016H115.829C119.157 38.016 121.802 37.2053 123.765 35.584C125.813 33.9627 126.837 31.7013 126.837 28.8C126.837 25.984 125.856 23.7653 123.893 22.144C121.93 20.5227 119.285 19.712 115.957 19.712H97.397V38.016ZM198.632 94.976C186.003 94.976 176.445 92.032 169.96 86.144C163.475 80.256 160.232 71.8933 160.232 61.056V1.79201H182.888V61.824C182.888 71.808 188.136 76.8 198.632 76.8C203.667 76.8 207.507 75.4347 210.152 72.704C212.797 69.888 214.12 66.1333 214.12 61.44V1.79201H236.776V61.056C236.776 71.808 233.533 80.1707 227.048 86.144C220.648 92.032 211.176 94.976 198.632 94.976ZM248.75 93.312V1.79201H271.406V93.312H248.75ZM283.997 93.312V1.79201H306.653V74.112H347.741V93.312H283.997ZM379.028 74.24H392.34C399.679 74.24 405.268 72.0213 409.108 67.584C412.948 63.0613 414.868 56.576 414.868 48.128C414.868 39.68 412.905 33.024 408.98 28.16C405.055 23.2107 399.593 20.736 392.596 20.736H379.028V74.24ZM356.372 93.312V1.79201H395.412C408.127 1.79201 418.367 6.01601 426.132 14.464C433.897 22.912 437.78 34.1333 437.78 48.128C437.78 64.5973 432.489 76.8853 421.908 84.992C414.484 90.5387 405.183 93.312 394.004 93.312H356.372ZM486.372 93.312V1.79201H530.532C539.663 1.79201 546.788 3.88268 551.908 8.06401C557.199 12.416 559.844 18.2613 559.844 25.6C559.844 34.304 555.577 40.2773 547.044 43.52V43.904C552.079 45.44 556.047 48.2133 558.948 52.224C561.935 56.2347 563.428 60.928 563.428 66.304C563.428 75.1787 560.313 82.0053 554.084 86.784C548.537 91.136 541.028 93.312 531.556 93.312H486.372ZM508.772 75.136H528.996C532.665 75.136 535.567 74.1547 537.7 72.192C539.919 70.2293 541.028 67.6267 541.028 64.384C541.028 60.8853 539.876 58.1973 537.572 56.32C535.268 54.3573 532.324 53.376 528.74 53.376H508.772V75.136ZM508.772 38.016H527.204C530.532 38.016 533.177 37.2053 535.14 35.584C537.188 33.9627 538.212 31.7013 538.212 28.8C538.212 25.984 537.231 23.7653 535.268 22.144C533.305 20.5227 530.66 19.712 527.332 19.712H508.772V38.016ZM572.247 93.312V1.79201H641.623V20.48H594.903V36.864H634.967V54.528H594.903V74.112H642.391V93.312H572.247ZM692.219 95.36C678.907 95.36 668.027 90.9227 659.579 82.048C651.216 73.088 647.035 61.696 647.035 47.872C647.035 34.048 651.174 22.6133 659.451 13.568C667.728 4.52267 678.608 7.62939e-06 692.091 7.62939e-06C702.502 7.62939e-06 711.206 2.68801 718.203 8.06401C726.139 14.0373 730.704 22.4427 731.899 33.28H709.243C708.646 29.0987 706.811 25.6427 703.739 22.912C700.667 20.1813 696.742 18.816 691.963 18.816C684.795 18.816 679.334 21.504 675.579 26.88C671.91 32.1707 670.075 39.168 670.075 47.872C670.075 56.4053 672.08 63.36 676.091 68.736C680.102 74.112 685.435 76.8 692.091 76.8C697.04 76.8 701.094 75.392 704.251 72.576C707.494 69.76 709.371 66.0907 709.883 61.568H732.539C731.856 70.784 728.187 78.592 721.531 84.992C714.363 91.904 704.592 95.36 692.219 95.36ZM730.972 93.312L763.868 1.79201H787.164L820.188 93.312H796.38L791.004 76.8H759.004L753.756 93.312H730.972ZM764.252 60.544H785.756L778.844 38.4L775.26 25.472H775.004C773.553 30.9333 772.316 35.2427 771.292 38.4L764.252 60.544ZM860.507 94.976C847.878 94.976 838.32 92.032 831.835 86.144C825.35 80.256 822.107 71.8933 822.107 61.056V1.79201H844.763V61.824C844.763 71.808 850.011 76.8 860.507 76.8C865.542 76.8 869.382 75.4347 872.027 72.704C874.672 69.888 875.995 66.1333 875.995 61.44V1.79201H898.651V61.056C898.651 71.808 895.408 80.1707 888.923 86.144C882.523 92.032 873.051 94.976 860.507 94.976ZM947.602 95.488C935.229 95.488 925.373 92.8427 918.034 87.552C910.781 82.176 907.026 74.496 906.77 64.512H929.554C930.493 73.216 936.466 77.568 947.474 77.568C951.57 77.568 955.026 76.8 957.842 75.264C960.743 73.6427 962.194 71.2107 962.194 67.968C962.194 65.7493 961.298 63.9147 959.506 62.464C957.714 60.928 955.879 59.8613 954.002 59.264C952.21 58.6667 948.754 57.728 943.634 56.448C943.378 56.3627 943.207 56.32 943.122 56.32C943.037 56.2347 942.909 56.192 942.738 56.192C942.567 56.1067 942.397 56.064 942.226 56.064C938.301 55.1253 935.058 54.3147 932.498 53.632C930.023 52.864 927.165 51.7547 923.922 50.304C920.765 48.768 918.247 47.104 916.37 45.312C914.493 43.52 912.871 41.1733 911.506 38.272C910.226 35.2853 909.586 31.9573 909.586 28.288C909.586 18.9013 912.914 11.8613 919.57 7.16801C926.311 2.47467 935.101 0.128006 945.938 0.128006C956.349 0.128006 964.839 2.51734 971.41 7.29601C978.066 12.0747 981.607 19.072 982.034 28.288H959.89C959.463 24.7893 957.97 22.1013 955.41 20.224C952.85 18.2613 949.437 17.28 945.17 17.28C941.245 17.28 938.045 18.0907 935.57 19.712C933.181 21.248 931.986 23.296 931.986 25.856C931.986 28.7573 933.437 30.8907 936.338 32.256C939.239 33.536 944.701 35.072 952.722 36.864C957.757 38.0587 961.895 39.2533 965.138 40.448C968.381 41.5573 971.666 43.1787 974.994 45.312C978.407 47.4453 980.925 50.2187 982.546 53.632C984.253 56.96 985.106 60.9707 985.106 65.664C985.106 74.9653 981.565 82.2613 974.482 87.552C967.485 92.8427 958.525 95.488 947.602 95.488ZM994.372 93.312V1.79201H1063.75V20.48H1017.03V36.864H1057.09V54.528H1017.03V74.112H1064.52V93.312H994.372ZM240.813 221.312V129.792H263.469V221.312H240.813ZM315.81 221.312V129.792H359.97C369.1 129.792 376.226 131.883 381.346 136.064C386.636 140.416 389.282 146.261 389.282 153.6C389.282 162.304 385.015 168.277 376.482 171.52V171.904C381.516 173.44 385.484 176.213 388.386 180.224C391.372 184.235 392.866 188.928 392.866 194.304C392.866 203.179 389.751 210.005 383.522 214.784C377.975 219.136 370.466 221.312 360.994 221.312H315.81ZM338.21 203.136H358.434C362.103 203.136 365.004 202.155 367.138 200.192C369.356 198.229 370.466 195.627 370.466 192.384C370.466 188.885 369.314 186.197 367.01 184.32C364.706 182.357 361.762 181.376 358.178 181.376H338.21V203.136ZM338.21 166.016H356.642C359.97 166.016 362.615 165.205 364.578 163.584C366.626 161.963 367.65 159.701 367.65 156.8C367.65 153.984 366.668 151.765 364.706 150.144C362.743 148.523 360.098 147.712 356.77 147.712H338.21V166.016ZM401.685 221.312V129.792H471.061V148.48H424.341V164.864H464.405V182.528H424.341V202.112H471.829V221.312H401.685ZM482.06 221.312V129.792H504.716V202.112H545.804V221.312H482.06ZM554.563 221.312V129.792H577.219V221.312H554.563ZM589.81 221.312V129.792H659.186V148.48H612.466V164.864H652.53V182.528H612.466V202.112H659.954V221.312H589.81ZM693.865 221.312L663.657 129.792H687.209L701.545 177.792L705.769 193.92H706.025C707.561 187.691 708.969 182.315 710.249 177.792L724.457 129.792H747.369L717.289 221.312H693.865ZM753.56 221.312V129.792H822.936V148.48H776.216V164.864H816.28V182.528H776.216V202.112H823.704V221.312H753.56Z" fill="white"/>
</svg>
